<svg id="Capa_1" enable-background="new 0 0 505.002 505.002" height="512" viewBox="0 0 505.002 505.002" width="512" xmlns="http://www.w3.org/2000/svg"><g><path d="m339.694 348.691c-8.28-16.83-15.44-34.14-21.45-51.81-.8-2.37-1.59-4.74-2.35-7.12h-121.27c-.76 2.38-1.55 4.75-2.35 7.12-6.01 17.67-13.17 34.98-21.45 51.81l-73.22 148.81h76.61c14.37-31.59 45.87-51.87 80.57-51.87h.95c17.35 0 33.9 5.07 47.91 14.09s25.47 21.98 32.66 37.78h76.61zm-128.27 19 16.35-34.27h54.97l16.36 34.27zm38.53-166.87-34.51-34.51-.47 10.13-.05.96c-1.44 30.8-6.16 61.27-14.02 90.91v.01c-1.91 7.2-4 14.35-6.28 21.44l56.24-77.57 4.4-6.07zm44.59-45.74-2.59-55.35-.48-10.13-36.21 36.22 5.25 5.34 34.56 35.15zm-75.5-65.48-.48 10.13-2.59 55.35-.53 11.23 34.56-35.14 5.26-5.35zm90.57 178.72v-.01c-7.86-29.64-12.58-60.11-14.02-90.91l-.05-.96-.47-10.13-34.51 34.51-5.3 5.3 4.39 6.06 56.24 77.58c-2.28-7.09-4.37-14.24-6.28-21.44z" fill="#d7d0d6"/><path d="m385.744 379.875v19.303c0 6.729-5.455 12.184-12.184 12.184h-236.602c-6.729 0-12.184-5.455-12.184-12.184v-19.303c0-6.729 5.455-12.184 12.184-12.184h236.603c6.728 0 12.183 5.455 12.183 12.184z" fill="#9b8e99"/><path d="m355.094 379.875v19.303c0 6.729-5.455 12.184-12.184 12.184h-205.952c-6.729 0-12.184-5.455-12.184-12.184v-19.303c0-6.729 5.455-12.184 12.184-12.184h205.953c6.728 0 12.183 5.455 12.183 12.184z" fill="#aa9ea9"/><path d="m352.784 301.945v19.293c0 6.729-5.455 12.184-12.184 12.184h-170.682c-6.729 0-12.184-5.455-12.184-12.184v-19.293c0-6.729 5.455-12.184 12.184-12.184h170.683c6.728 0 12.183 5.455 12.183 12.184z" fill="#9b8e99"/><path d="m291.474 89.601-36.21 36.22-36.22-36.22z" fill="#d7d0d6"/><path d="m295.075 166.311-39.81 39.81-39.82-39.81 39.82-40.49z" fill="#d7d0d6"/><path d="m315.895 289.761h-121.27l60.64-83.64z" fill="#d7d0d6"/><g fill="#aa9ea9"><path d="m291.954 99.731-31.39 31.39c-.02.02-.03.03-.05.04-1.4 1.39-3.29 2.16-5.25 2.16-1.97 0-3.86-.77-5.26-2.15l-31.44-31.44.48-10.13h10.61l25.61 25.61 25.6-25.61h10.61z"/><path d="m295.074 166.311-.53-11.23-28.72-29.22-5.22-5.3c-.01-.01-.03-.03-.04-.04-1.4-1.41-3.31-2.2-5.3-2.2-2 0-3.9.78-5.3 2.2-.02.01-.03.02-.05.04l-5.22 5.3-28.72 29.22-.53 11.23-.47 10.13 34.98 34.98c.29.29.59.54.91.77 1.31.96 2.85 1.43 4.4 1.43 1.54 0 3.08-.47 4.39-1.44.32-.22.62-.47.91-.76l4.52-4.52 30.46-30.46zm-69.06-.05 29.25-29.75 29.25 29.75-29.25 29.25z"/><path d="m318.244 296.881c-.77.25-1.56.38-2.35.38-2.32 0-4.61-1.08-6.07-3.1l-3.19-4.4-51.37-70.86-51.38 70.86-3.19 4.4c-1.96 2.71-5.4 3.72-8.42 2.72.8-2.37 1.59-4.74 2.35-7.12 2.28-7.09 4.37-14.24 6.28-21.44v-.01l44.53-61.41 3.75-5.18c.23-.32.49-.63.77-.9 1.39-1.4 3.3-2.2 5.31-2.2 2 0 3.91.8 5.3 2.2.28.27.54.57.77.9l3.75 5.18 44.53 61.41v.01c1.91 7.2 4 14.35 6.28 21.44.76 2.38 1.55 4.75 2.35 7.12z"/><path d="m322.134 301.945v19.293c0 6.729-5.455 12.184-12.184 12.184h-140.032c-6.729 0-12.184-5.455-12.184-12.184v-19.293c0-6.729 5.455-12.184 12.184-12.184h140.033c6.728 0 12.183 5.455 12.183 12.184z"/></g><path d="m255.26 55.021c-4.142 0-7.5-3.357-7.5-7.5v-40.021c0-4.143 3.358-7.5 7.5-7.5 4.143 0 7.5 3.357 7.5 7.5v40.021c0 4.143-3.358 7.5-7.5 7.5z" fill="#9b8e99"/><path d="m279.414 56.059v33.543h-48.31v-29.649c0-6.866 5.566-12.432 12.432-12.432h27.34c4.716 0 8.538 3.823 8.538 8.538z" fill="#9b8e99"/><path d="m259.734 56.059v33.543h-28.63v-33.543c0-4.715 3.822-8.537 8.537-8.537h11.555c4.716-.001 8.538 3.822 8.538 8.537z" fill="#aa9ea9"/><path d="m186.381 226.571c0 10.89-8.84 19.72-19.73 19.72-3.33 0-6.45-.82-9.2-2.28-5.68 8.67-15.49 14.4-26.64 14.4-4.63 0-9.03-.99-13-2.78-6.9 6.18-16.01 9.93-25.99 9.93-15.61 0-29.07-9.17-35.31-22.41-3.07 1.99-6.73 3.14-10.66 3.14-10.9 0-19.73-8.83-19.73-19.72 0-10.9 8.83-19.73 19.73-19.73 3.93 0 7.59 1.15 10.66 3.14 6.24-13.24 19.7-22.41 35.31-22.41 9.97 0 19.08 3.75 25.98 9.92 3.97-1.78 8.38-2.77 13.01-2.77 11.15 0 20.96 5.73 26.64 14.4 2.75-1.46 5.87-2.28 9.2-2.28 10.89 0 19.73 8.83 19.73 19.73z" fill="#c8effe"/><path d="m484.888 167.535c0 10.89-8.83 19.72-19.73 19.72-3.32 0-6.45-.82-9.2-2.28-5.68 8.67-15.49 14.4-26.63 14.4-4.63 0-9.02-.99-12.99-2.77-6.9 6.17-16.02 9.93-26.01 9.93-15.61 0-29.08-9.17-35.3-22.42-3.07 1.99-6.74 3.14-10.67 3.14-10.9 0-19.73-8.83-19.73-19.72 0-10.9 8.83-19.73 19.73-19.73 3.93 0 7.6 1.15 10.67 3.14 6.23-13.24 19.69-22.41 35.3-22.41 9.99 0 19.1 3.76 26 9.93 3.97-1.78 8.37-2.77 13-2.77 11.14 0 20.94 5.72 26.63 14.39 2.75-1.46 5.88-2.28 9.2-2.28 10.9 0 19.73 8.829 19.73 19.73z" fill="#c8effe"/><path d="m47.233 98.068c0 17.58 14.26 31.84 31.84 31.84 4.64 0 9.04-.99 13.01-2.76 6.9 6.17 16.01 9.92 25.99 9.92 15.61 0 29.08-9.17 35.31-22.42 3.07 1.99 6.73 3.14 10.66 3.14 10.89 0 19.72-8.83 19.72-19.72s-8.83-19.72-19.72-19.72c-3.93 0-7.59 1.15-10.66 3.14-6.23-13.25-19.7-22.42-35.31-22.42-9.98 0-19.09 3.75-25.99 9.92-3.97-1.77-8.37-2.76-13.01-2.76-17.58 0-31.84 14.25-31.84 31.84z" fill="#c8effe"/><path d="m487.784 371.361v36.33c0 9.39-3.81 17.89-9.96 24.04s-14.65 9.96-24.04 9.96c-4.41 0-8.63-.84-12.5-2.37-12.59-4.98-21.5-17.26-21.5-31.63v-36.33c0-14.37 8.91-26.65 21.5-31.63 3.87-1.53 8.09-2.37 12.5-2.37 18.77 0 34 15.22 34 34z" fill="#008b81"/><path d="m462.784 371.361v36.33c0 9.39-3.81 17.89-9.96 24.04-3.26 3.26-7.18 5.86-11.54 7.59-12.59-4.98-21.5-17.26-21.5-31.63v-36.33c0-14.37 8.91-26.65 21.5-31.63 12.59 4.98 21.5 17.26 21.5 31.63z" fill="#01998d"/><path d="m94.124 393.351v22.01c0 9.38-3.81 17.88-9.96 24.04-6.15 6.15-14.65 9.96-24.04 9.96-4.99 0-9.73-1.08-14-3.02-11.8-5.33-20-17.2-20-30.98v-22.01c0-13.79 8.2-25.66 20-30.98 4.27-1.94 9.01-3.02 14-3.02 18.77 0 34 15.22 34 34z" fill="#008b81"/><path d="m66.114 393.351v22.01c0 9.38-3.8 17.88-9.96 24.04-2.88 2.88-6.27 5.24-10.03 6.94-11.8-5.33-20-17.2-20-30.98v-22.01c0-13.79 8.2-25.66 20-30.98 11.79 5.33 19.99 17.2 19.99 30.98z" fill="#01998d"/><path d="m440.141 263.641h-63.817c-4.143 0-7.5-3.357-7.5-7.5s3.357-7.5 7.5-7.5h63.817c4.143 0 7.5 3.357 7.5 7.5s-3.358 7.5-7.5 7.5z" fill="#99e6fc"/><path d="m471.28 303.037h-43.166c-4.143 0-7.5-3.357-7.5-7.5s3.357-7.5 7.5-7.5h43.166c4.143 0 7.5 3.357 7.5 7.5s-3.357 7.5-7.5 7.5z" fill="#99e6fc"/><path d="m98.114 321.861h-40.6c-4.142 0-7.5-3.357-7.5-7.5s3.358-7.5 7.5-7.5h40.6c4.142 0 7.5 3.357 7.5 7.5s-3.358 7.5-7.5 7.5z" fill="#99e6fc"/><path d="m453.781 505.002c-4.143 0-7.5-3.357-7.5-7.5v-76.141c0-4.143 3.357-7.5 7.5-7.5s7.5 3.357 7.5 7.5v76.141c0 4.143-3.357 7.5-7.5 7.5z" fill="#d8aa5e"/><path d="m60.121 505.002c-4.142 0-7.5-3.357-7.5-7.5v-65.685c0-4.143 3.358-7.5 7.5-7.5s7.5 3.357 7.5 7.5v65.685c0 4.143-3.358 7.5-7.5 7.5z" fill="#d8aa5e"/><path d="m484.888 505.002h-236.274c-4.142 0-7.5-3.357-7.5-7.5s3.358-7.5 7.5-7.5h236.273c4.143 0 7.5 3.357 7.5 7.5s-3.357 7.5-7.499 7.5z" fill="#baafb9"/><path d="m215.115 505.002h-195c-4.142 0-7.5-3.357-7.5-7.5s3.358-7.5 7.5-7.5h195c4.142 0 7.5 3.357 7.5 7.5s-3.358 7.5-7.5 7.5z" fill="#baafb9"/></g></svg>