<svg id="Capa_1" enable-background="new 0 0 510 510" height="512" viewBox="0 0 510 510" width="512" xmlns="http://www.w3.org/2000/svg" xmlns:xlink="http://www.w3.org/1999/xlink"><linearGradient id="lg1"><stop offset="0" stop-color="#01d0fb"/><stop offset=".6075" stop-color="#26a6fe"/><stop offset="1" stop-color="#0182fc"/></linearGradient><linearGradient id="SVGID_1_" gradientUnits="userSpaceOnUse" x1="-14.658" x2="427.259" xlink:href="#lg1" y1="167.489" y2="167.489"/><linearGradient id="lg2"><stop offset="0" stop-color="#01bffa"/><stop offset="1" stop-color="#5b5cff"/></linearGradient><linearGradient id="SVGID_2_" gradientUnits="userSpaceOnUse" x1="158" x2="247.567" xlink:href="#lg2" y1="215.515" y2="215.515"/><linearGradient id="SVGID_3_" gradientUnits="userSpaceOnUse" x1="232.667" x2="348.667" xlink:href="#lg2" y1="239.948" y2="239.948"/><linearGradient id="SVGID_4_" gradientUnits="userSpaceOnUse" x1="107.823" x2="178.5" xlink:href="#lg1" y1="103.282" y2="103.282"/><linearGradient id="SVGID_5_" gradientUnits="userSpaceOnUse" x1="187.942" x2="299" xlink:href="#lg1" y1="330.512" y2="330.512"/><linearGradient id="SVGID_6_" gradientUnits="userSpaceOnUse" x1="193.454" x2="299.964" xlink:href="#lg2" y1="330.51" y2="330.51"/><linearGradient id="SVGID_7_" gradientUnits="userSpaceOnUse" x1="218" x2="320.078" xlink:href="#lg1" y1="256.238" y2="256.238"/><linearGradient id="SVGID_8_" gradientUnits="userSpaceOnUse" x1="177.942" x2="291.284" xlink:href="#lg1" y1="267.338" y2="267.338"/><linearGradient id="SVGID_9_" gradientUnits="userSpaceOnUse" x1="153" x2="296.667" xlink:href="#lg1" y1="243.936" y2="243.936"/><linearGradient id="SVGID_10_" gradientUnits="userSpaceOnUse" x1="189" x2="293.938" xlink:href="#lg2" y1="186.025" y2="186.025"/><linearGradient id="SVGID_11_" gradientUnits="userSpaceOnUse" x1="190.5" x2="304.15" xlink:href="#lg2" y1="186.025" y2="186.025"/><linearGradient id="SVGID_12_" gradientUnits="userSpaceOnUse" x1="295.333" x2="376.132" xlink:href="#lg1" y1="243.002" y2="243.002"/><linearGradient id="SVGID_13_" gradientUnits="userSpaceOnUse" x1="322" x2="364.021" xlink:href="#lg1" y1="250.867" y2="250.867"/><linearGradient id="SVGID_14_" gradientUnits="userSpaceOnUse" x1="271.942" x2="352.95" xlink:href="#lg1" y1="109.356" y2="109.356"/><linearGradient id="SVGID_15_" gradientUnits="userSpaceOnUse" x1="283.118" x2="346.522" xlink:href="#lg1" y1="88.297" y2="88.297"/><linearGradient id="SVGID_16_" gradientUnits="userSpaceOnUse" x1="261.353" x2="312.651" xlink:href="#lg1" y1="69.566" y2="69.566"/><linearGradient id="SVGID_17_" gradientUnits="userSpaceOnUse" x1="181.687" x2="244.528" xlink:href="#lg1" y1="109.356" y2="109.356"/><linearGradient id="SVGID_18_" gradientUnits="userSpaceOnUse" x1="173.706" x2="228.727" xlink:href="#lg1" y1="88.297" y2="88.297"/><linearGradient id="SVGID_19_" gradientUnits="userSpaceOnUse" x1="204.883" x2="253.992" xlink:href="#lg1" y1="69.566" y2="69.566"/><linearGradient id="SVGID_20_" gradientUnits="userSpaceOnUse" x1="220.157" x2="294.315" xlink:href="#lg1" y1="140.493" y2="140.493"/><linearGradient id="SVGID_21_" gradientUnits="userSpaceOnUse" x1="213.333" x2="308.948" xlink:href="#lg2" y1="140.495" y2="140.495"/><linearGradient id="SVGID_22_" gradientUnits="userSpaceOnUse" x1="246.059" x2="268.412" xlink:href="#lg1" y1="59.092" y2="59.092"/><linearGradient id="SVGID_23_" gradientUnits="userSpaceOnUse" x1="206.127" x2="288.04" xlink:href="#lg1" y1="100.507" y2="100.507"/><linearGradient id="SVGID_24_" gradientUnits="userSpaceOnUse" x1="97.072" x2="172.449" xlink:href="#lg2" y1="39.213" y2="39.213"/><linearGradient id="SVGID_25_" gradientUnits="userSpaceOnUse" x1="105.162" x2="162.303" xlink:href="#lg1" y1="74.576" y2="74.576"/><linearGradient id="lg3"><stop offset="0" stop-color="#f3eae6"/><stop offset="1" stop-color="#cdbfba"/></linearGradient><linearGradient id="SVGID_26_" gradientUnits="userSpaceOnUse" x1="141.19" x2="390.757" xlink:href="#lg3" y1="477.473" y2="477.473"/><linearGradient id="SVGID_27_" gradientUnits="userSpaceOnUse" x1="281.737" x2="472.375" y1="477.474" y2="477.474"><stop offset="0" stop-color="#cdbfba"/><stop offset="1" stop-color="#766e6e"/></linearGradient><linearGradient id="SVGID_28_" gradientUnits="userSpaceOnUse" x1="152.88" x2="534.004" y1="489.99" y2="489.99"><stop offset="0" stop-color="#faf7f7"/><stop offset=".4551" stop-color="#f3eae6"/><stop offset="1" stop-color="#efe2dd"/></linearGradient><linearGradient id="SVGID_29_" gradientUnits="userSpaceOnUse" x1="154.789" x2="435.075" xlink:href="#lg3" y1="489.99" y2="489.99"/><g><path d="m242.465 196.141c-34.351-14.741-59.644-44.941-68.13-81.345l-9.663-41.456-2.732.637v-.637h-43.877v31.148c0 7.03 5.699 12.73 12.73 12.73 8.144 0 15.214 5.612 17.063 13.543l11.579 49.677c1.097 4.708 3.01 9.188 5.652 13.236l44.351 67.965 55.747-55.747z" fill="url(#SVGID_1_)"/><path d="m265.19 205.89-21.21 21.21-34.54 34.54-36.44-55.85c6.79-14.58 17.42-27.2 30.9-36.4 10.78 11.28 23.84 20.43 38.57 26.75l7.38 3.17z" fill="url(#SVGID_2_)"/><path d="m305.471 177.293 49.873 49.873v40.843c0 19.106-15.489 34.595-34.595 34.595h-15.278z" fill="url(#SVGID_3_)"/><path d="m129.05 133.326v-60.087c0-6.019 5.267-10.898 11.765-10.898s11.765 4.879 11.765 10.898v60.086c0 6.018-5.267 10.898-11.765 10.898s-11.765-4.879-11.765-10.897z" fill="url(#SVGID_4_)"/><path d="m322.633 456.309h-130.795l22.499-251.594h85.798z" fill="url(#SVGID_5_)"/><path d="m322.63 456.31h-25.01l-6.205-69.393c-1.09-12.193-3.546-24.27-7.914-35.706-1.001-2.621-1.706-5.397-2.071-8.291l-2.91-23c-8.13 12.73-13.39 27.16-15.31 42.28-2.48 19.58-19.14 34.26-38.87 34.26h-27.15l13.27-148.32 3.88-43.43h85.79l15.16 169.51z" fill="url(#SVGID_6_)"/><path d="m316.996 349.25c-18.058 0-33.298-13.431-35.567-31.345l-15.935-125.785c-.859-6.741-3.706-12.788-7.906-17.588l11.612-11.306h9.224c16.647 0 30.694 12.388 32.788 28.894l18.131 143.12c.942 7.435-4.852 14.01-12.347 14.01z" fill="url(#SVGID_7_)"/><path d="m263.209 337.191c2.665-21.029 11.777-40.718 26.084-56.359l7.266-7.069c14.012-13.632 20.806-33.053 18.349-52.447l-3.699-29.192c-2.093-16.515-16.141-28.895-32.788-28.895h-9.225l-49.424 48.083c-14.307 15.641-23.419 35.33-26.084 56.359l-11.687 92.228c-.777 6.129 4 11.55 10.178 11.55h32.157c19.736-.001 36.392-14.679 38.873-34.258z" fill="url(#SVGID_8_)"/><path d="m225.269 183.205 30.486-18.198c9.181-5.481 20.512 2.516 18.425 13.003l-11.955 60.057c-2.107 10.585-7.305 20.308-14.937 27.94l-55.105 55.105c-8.179 8.179-22.041 1.08-20.185-10.336l10.506-64.638c4.267-26.263 19.92-49.296 42.765-62.933z" fill="url(#SVGID_9_)"/><path d="m272.274 208.821c17.528 0 31.994-13.068 34.212-29.992-5.871-9.432-16.318-15.601-28.064-15.601h-9.225l-42.881 41.719c4.756 2.47 10.154 3.874 15.883 3.874z" fill="url(#SVGID_10_)"/><path d="m255.754 165.006-30.486 18.198c-4.473 2.67-8.666 5.706-12.557 9.051 6.06 9.933 16.998 16.566 29.486 16.566h25.848l6.133-30.812c2.088-10.487-9.242-18.483-18.424-13.003z" fill="url(#SVGID_11_)"/><path d="m374.524 224.948-18.836-18.836c-3.992-3.992-10.464-3.992-14.456 0l-40.487 40.487c-3.992 3.992-3.992 10.464 0 14.456l18.836 18.836c3.992 3.992 10.464 3.992 14.456 0l40.487-40.487c3.992-3.992 3.992-10.464 0-14.456z" fill="url(#SVGID_12_)"/><path d="m351.253 263.414-8.456-8.456c-4.256-4.256-3.981-11.43.613-16.025s11.769-4.869 16.025-.613l8.456 8.456c4.255 4.255 3.981 11.43-.613 16.025-4.595 4.594-11.77 4.868-16.025.613z" fill="url(#SVGID_13_)"/><g><g><path d="m335.176 107.786c2.367.864 2.367 2.277 0 3.14-4.474 1.632-9.001 2.628-13.546 2.98l-41.738 3.839v-16.777l41.738 3.839c4.545.351 9.072 1.347 13.546 2.979z" fill="url(#SVGID_14_)"/><path d="m331.419 68.492c2.436-.645 3.244.514 1.796 2.576-2.737 3.898-5.88 7.304-9.408 10.192l-32.043 27.02-9.595-13.762 36.433-20.722c3.93-2.312 8.213-4.084 12.817-5.304z" fill="url(#SVGID_15_)"/><path d="m300.13 43.356c1.888-1.668 3.13-.994 2.76 1.498-.7 4.711-1.985 9.164-3.845 13.326l-16.543 38.511-14.744-8.006 23.29-34.848c2.477-3.825 5.513-7.328 9.082-10.481z" fill="url(#SVGID_16_)"/></g><g><path d="m179.295 107.786c-2.367.864-2.367 2.277 0 3.14 4.474 1.632 9.001 2.628 13.546 2.98l41.738 3.839v-16.777l-41.738 3.839c-4.545.351-9.072 1.347-13.546 2.979z" fill="url(#SVGID_17_)"/><path d="m183.053 68.492c-2.436-.645-3.244.514-1.796 2.576 2.737 3.898 5.88 7.304 9.408 10.192l32.043 27.02 9.595-13.762-36.433-20.722c-3.931-2.312-8.214-4.084-12.817-5.304z" fill="url(#SVGID_18_)"/><path d="m214.341 43.356c-1.888-1.668-3.13-.994-2.76 1.498.7 4.711 1.985 9.164 3.845 13.326l16.543 38.511 14.744-8.006-23.29-34.848c-2.477-3.825-5.512-7.328-9.082-10.481z" fill="url(#SVGID_19_)"/></g><path d="m264.457 183.81h-14.444c-16.49 0-29.857-13.368-29.857-29.857v-56.777h74.158v56.776c.001 16.49-13.367 29.858-29.857 29.858z" fill="url(#SVGID_20_)"/><path d="m294.31 97.18v56.78c0 16.486-13.364 29.85-29.85 29.85h-14.45c-1.8 0-3.57-.16-5.28-.47 13.97-2.49 24.57-14.7 24.57-29.39 0-9.201-7.459-16.66-16.66-16.66h-32.48v-40.11z" fill="url(#SVGID_21_)"/><path d="m261.785 43.556c-.352-5.346-1.347-10.671-2.98-15.933-.864-2.784-2.277-2.784-3.14 0-1.632 5.263-2.628 10.587-2.98 15.933l-3.839 49.093h16.777z" fill="url(#SVGID_22_)"/><path d="m294.573 112.272h-74.676c-6.019 0-10.898-5.267-10.898-11.765s4.879-11.765 10.898-11.765h74.676c6.018 0 10.898 5.267 10.898 11.765s-4.879 11.765-10.898 11.765z" fill="url(#SVGID_23_)"/></g><path d="m172.734 32.49c-.094-.288-.191-.572-.291-.855-6.331-18.182-22.71-30.118-40.844-31.608-5.909-.485-10.18 5.389-8.147 10.959.085.234.167.469.245.708.039.119.077.235.113.356 2.869 9.278-.734 19.061-8.301 24.406-3.902 2.756-6.742 6.765-7.836 11.415l-.015.066c-1.199 5.103-.277 10.493 2.624 14.859 8.497 12.788 24.768 18.893 40.068 13.882 18.383-6.02 28.404-25.805 22.384-44.188z" fill="url(#SVGID_24_)"/><path d="m163.565 86.34h-45.502c-6.019 0-10.898-5.267-10.898-11.765s4.879-11.765 10.898-11.765h45.502c6.018 0 10.898 5.267 10.898 11.765s-4.879 11.765-10.898 11.765z" fill="url(#SVGID_25_)"/><g><path d="m361.366 509.999h-212.732c-10.959 0-19.842-8.884-19.842-19.842v-25.367c0-10.959 8.884-19.842 19.842-19.842h212.731c10.959 0 19.842 8.884 19.842 19.842v25.367c.001 10.959-8.883 19.842-19.841 19.842z" fill="url(#SVGID_26_)"/><path d="m361.366 444.948h-40.02c10.958 0 19.842 8.884 19.842 19.842v25.367c0 10.958-8.884 19.842-19.842 19.842h40.02c10.958 0 19.842-8.884 19.842-19.842v-25.367c0-10.959-8.884-19.842-19.842-19.842z" fill="url(#SVGID_27_)"/></g><g><path d="m412.825 489.99c0-11.051-8.959-20.01-20.01-20.01h-275.63c-11.051 0-20.01 8.959-20.01 20.01 0 11.051 8.959 20.01 20.01 20.01h275.629c11.052 0 20.011-8.959 20.011-20.01z" fill="url(#SVGID_28_)"/><path d="m392.815 469.98h-40.02c11.051 0 20.01 8.959 20.01 20.01s-8.959 20.01-20.01 20.01h40.02c11.051 0 20.01-8.959 20.01-20.01s-8.959-20.01-20.01-20.01z" fill="url(#SVGID_29_)"/></g></g></svg>